<svg id="Layer_1" data-name="Layer 1" xmlns="http://www.w3.org/2000/svg" viewBox="0 0 1400 980"><defs><style>.cls-1{fill:#ffefda;}.cls-2{fill:#f37021;}.cls-3{fill:#4c260f;}</style></defs><title>Free Tai Chi Vector</title><rect class="cls-1" width="1400" height="980"/><path class="cls-2" d="M320.57,156.21a126.6,126.6,0,1,0,38.39,89A125.77,125.77,0,0,0,320.57,156.21ZM218.83,306.89a14.42,14.42,0,1,1,14.63,14.21A14.42,14.42,0,0,1,218.83,306.89ZM151,330.82a116.79,116.79,0,0,1,79.65-200.56,118.75,118.75,0,0,1,13.45.57c10.52,3.76,20.61,8.48,28.86,15.88a56.71,56.71,0,0,1-18.12,95.4c-15.24,5.65-32.52,4.64-47.23,11.55-23.48,11-34.15,41.07-27.67,66.19,4.21,16.34,14.37,30.4,27.4,41.3A116,116,0,0,1,151,330.82Z"/><circle class="cls-2" cx="231.53" cy="189.69" r="14.42" transform="translate(-2.76 3.41) rotate(-0.84)"/><path class="cls-2" d="M270.27,640.85a126.6,126.6,0,1,0,37.08,89.52A125.77,125.77,0,0,0,270.27,640.85ZM166.33,790a14.42,14.42,0,1,1,14.42,14.42A14.42,14.42,0,0,1,166.33,790ZM98.17,813a116.79,116.79,0,0,1,82.58-199.37,118.75,118.75,0,0,1,13.44.77c10.46,3.91,20.48,8.78,28.63,16.3a56.71,56.71,0,0,1-19.52,95.13c-15.32,5.43-32.58,4.16-47.4,10.85-23.64,10.68-34.74,40.56-28.64,65.77,4,16.4,13.92,30.61,26.79,41.7A116,116,0,0,1,98.17,813Z"/><circle class="cls-2" cx="180.75" cy="673.03" r="14.42"/><path class="cls-2" d="M654.95,640.85A126.6,126.6,0,1,0,692,730.37,125.77,125.77,0,0,0,654.95,640.85ZM551,790a14.42,14.42,0,1,1,14.42,14.42A14.42,14.42,0,0,1,551,790ZM482.84,813a116.79,116.79,0,0,1,82.58-199.37,118.75,118.75,0,0,1,13.44.77c10.46,3.91,20.48,8.78,28.63,16.3A56.71,56.71,0,0,1,588,725.78c-15.32,5.43-32.58,4.16-47.4,10.85-23.64,10.68-34.74,40.56-28.64,65.77,4,16.4,13.92,30.61,26.79,41.7A116,116,0,0,1,482.84,813Z"/><circle class="cls-2" cx="565.43" cy="673.03" r="14.42"/><path class="cls-2" d="M962.82,640.85a126.6,126.6,0,1,0,37.08,89.52A125.77,125.77,0,0,0,962.82,640.85ZM858.87,790a14.42,14.42,0,1,1,14.42,14.42A14.42,14.42,0,0,1,858.87,790ZM790.71,813a116.79,116.79,0,0,1,82.58-199.37,118.75,118.75,0,0,1,13.44.77c10.46,3.91,20.48,8.78,28.63,16.3a56.71,56.71,0,0,1-19.52,95.13c-15.32,5.43-32.58,4.16-47.4,10.85-23.64,10.68-34.74,40.56-28.64,65.77,4,16.4,13.92,30.61,26.79,41.7A116,116,0,0,1,790.71,813Z"/><circle class="cls-2" cx="873.29" cy="673.03" r="14.42"/><path class="cls-2" d="M1295.52,640.85a126.6,126.6,0,1,0,37.08,89.52A125.77,125.77,0,0,0,1295.52,640.85ZM1191.58,790A14.42,14.42,0,1,1,1206,804.44,14.42,14.42,0,0,1,1191.58,790ZM1123.42,813A116.79,116.79,0,0,1,1206,613.58a118.75,118.75,0,0,1,13.44.77c10.46,3.91,20.48,8.78,28.63,16.3a56.71,56.71,0,0,1-19.52,95.13c-15.32,5.43-32.58,4.16-47.4,10.85-23.64,10.68-34.74,40.56-28.64,65.77,4,16.4,13.92,30.61,26.79,41.7A116,116,0,0,1,1123.42,813Z"/><circle class="cls-2" cx="1206" cy="673.03" r="14.42"/><path class="cls-2" d="M645.67,157.51A126.6,126.6,0,1,0,682.75,247,125.77,125.77,0,0,0,645.67,157.51ZM541.73,306.68a14.42,14.42,0,1,1,14.42,14.42A14.42,14.42,0,0,1,541.73,306.68Zm-68.16,22.93a116.79,116.79,0,0,1,82.58-199.37,118.75,118.75,0,0,1,13.44.77c10.46,3.91,20.48,8.78,28.63,16.3a56.71,56.71,0,0,1-19.52,95.13c-15.32,5.43-32.58,4.16-47.4,10.85-23.64,10.68-34.74,40.56-28.64,65.77,4,16.4,13.92,30.61,26.79,41.7A116,116,0,0,1,473.56,329.61Z"/><circle class="cls-2" cx="556.15" cy="189.69" r="14.42"/><path class="cls-2" d="M969.11,157.51A126.6,126.6,0,1,0,1006.2,247,125.77,125.77,0,0,0,969.11,157.51ZM865.17,306.68a14.42,14.42,0,1,1,14.42,14.42A14.42,14.42,0,0,1,865.17,306.68ZM797,329.61a116.79,116.79,0,0,1,82.58-199.37A118.75,118.75,0,0,1,893,131c10.46,3.91,20.48,8.78,28.63,16.3a56.71,56.71,0,0,1-19.52,95.13c-15.32,5.43-32.58,4.16-47.4,10.85C831.09,264,820,293.85,826.1,319.06c4,16.4,13.92,30.61,26.79,41.7A116,116,0,0,1,797,329.61Z"/><circle class="cls-2" cx="879.59" cy="189.69" r="14.42"/><path class="cls-2" d="M1292.56,157.51A126.6,126.6,0,1,0,1329.64,247,125.77,125.77,0,0,0,1292.56,157.51ZM1188.62,306.68A14.42,14.42,0,1,1,1203,321.1,14.42,14.42,0,0,1,1188.62,306.68Zm-68.16,22.93A116.79,116.79,0,0,1,1203,130.24a118.75,118.75,0,0,1,13.44.77c10.46,3.91,20.48,8.78,28.63,16.3a56.71,56.71,0,0,1-19.52,95.13c-15.32,5.43-32.58,4.16-47.4,10.85-23.64,10.68-34.74,40.56-28.64,65.77,4,16.4,13.92,30.61,26.79,41.7A116,116,0,0,1,1120.45,329.61Z"/><circle class="cls-2" cx="1203.04" cy="189.69" r="14.42"/><path class="cls-3" d="M1015.35,443.94c-1.52-1.86-3.59-2.62-5.88-3.16-4.45-1-7.75-1.9-11.79-4.13-1.57-.87-2-1-2.63-2.58-.31-.79-.19-1.77-.59-2.61a10.64,10.64,0,0,0-2.23-2.75,49.12,49.12,0,0,1-3.52-4.54c-1.45-1.91-2.59-4.21-4.19-6-2.32-2.63-5.74-3.72-8.53-5.72-2.37-1.71-5-5-6.92-7.26-2.47-2.89-3.11-6.89-4-10.46-2-7.85-3.92-15.76-5.76-23.67-2.05-8.84-3.87-17.71-7.39-26.12-1.28-3.06-2.57-6.07-4.81-8.57-2.46-2.76-5.71-4.56-8.19-7.3a93.56,93.56,0,0,1-9-10.94c-2.1-3.19-4.93-5.51-7.41-8.38-1.88-2.18-3.89-4.2-5.76-6.37,0-.48,0-1,0-1.43a114.78,114.78,0,0,0-.83-12.23c-.42-3.57-.67-7.16-2-10.55-1.52-3.9-3.65-7.31-5.51-11-4.86-9.64-3.45-21.55-.27-31.35,1.5-4.62,3.6-8.54,4.37-13.39.55-3.47,1.52-6.88,2-10.35a29.32,29.32,0,0,0,4.59,4.39c2.36,1.81,5.16,2.88,7.7,4.41,2.13,1.29,3.82,3.07,6.45,3.15,2.47.07,4.36-1.65,6.51-2.62a21.32,21.32,0,0,0,6.49-4.6c4-4,8.74-9.12,9.79-14.85,1.15-6.26.2-10.45-2.24-16.23S946.27,176,942.45,171.2C938.31,166,934,161.27,930,156a31.83,31.83,0,0,0-13.25-9.78c-7.86-3.27-16.15-3.51-22.64-9.65-1.31-1.24-2.62-2.4-4-3.53.13-1.06.29-2.11.52-3.13A59.75,59.75,0,0,1,896.14,115c2.3-4.31,5-8.58,6.59-13.13,3-2.93,6.3-5.75,7.4-9.77.7-2.59.31-5.36.34-8,0-3,.53-6,0-9-1.07-5.73-6.14-7.93-11-10.07-5.68-2.5-11.44-5-17.64-5.79-11.89-1.48-26.18,4.16-28.83,17-2.81,13.6.69,27.46,1,41.1a11.6,11.6,0,0,0-3.84,2.9,61,61,0,0,1-15.93,12.21c-6.59,3.55-19.71,9.35-20.54,18.35a45,45,0,0,1-2.26-10.93c-.52-5.82,1.05-11.3.5-17.13-.22-2.34-.91-5.58-3.91-5.43a3.84,3.84,0,0,0-2.67,1.53,12.35,12.35,0,0,0-1,3.17c-1.63-4.88-4.74-13.92-8.69-11.37a3.08,3.08,0,0,0-1.24,2.35,9.71,9.71,0,0,0,.09,2.19c.09,1.46.74,1.87-.62,1.37-1.18-.44-2.54-2.57-3.62-3.37a7.55,7.55,0,0,0-3.74-1.74c-.83-.1-1.5.78-1.52,1.52-.07,3.14,2.24,5.34,3.51,8.09a46.13,46.13,0,0,1,4.35,13.28,111.06,111.06,0,0,1,.64,11.54,72.55,72.55,0,0,0,1.23,10c-2.15-.2-4.32-.17-5.72,1.93-1.87,2.82.07,7.49.41,10.47.51,4.41,1.93,8.61,1.83,13.11-.1,4.3.53,8.51.45,12.81-.15,7.7,3,12.76,8.23,18.23,2.23,2.33,4.94,6,8.3,6.65a11.22,11.22,0,0,0,5.42-.67c.32-.1.61-.28.93-.39l.06,0c-.62,3.27-.06,7.75,0,9.62a24.54,24.54,0,0,1-.69,7.91c-.84,2.72-2.37,5.28-3.51,7.89-1.86,4.26-3.86,8.48-5.52,12.82-1.79,4.67-2.88,9.6-5.19,14-2.1,4-3,8.63-5.31,12.51-1.28,2.11-3.59,5-1.94,7.55,1.56,2.38,5.54,2.14,7.38,4.29.39,1.18.44,2.38.86,3.69a28.45,28.45,0,0,0,1.64,3.27c1.85,4,1.92,8.88,2.81,13.13,1.73,8.29,5.19,15.61,8.48,23.35a54.25,54.25,0,0,1,4,12.38c.58,3.57,1.5,10-.22,13.29-1.42,2.73-6.86,6.76-4.19,10.3a4.23,4.23,0,0,0,1.72,1.13,2.31,2.31,0,0,0,1,.34,1,1,0,0,0-.1.4,25,25,0,0,1-1.13,2.85c-.1.35.21,1.18.07,1.42s-1.1.4-1.36.79c-.83,1.25-.36,3.52-1.06,4.2-.2.19-1.46.2-1.84.46a3.87,3.87,0,0,0-1.29,2.47c-.61,2.57-.06,5.35.3,7.91.34,2.33.88,4.77.22,7.11a37.07,37.07,0,0,1-3.33,7c-1.92,3.51-4.4,6.67-6.35,10.17a56.91,56.91,0,0,1-7.55,11.16,18.86,18.86,0,0,0-4.36,7c-.66,2-1.27,4-2.81,5.55-1.25,1.27-3,1.64-4.25,2.79-3.33,3-2.22,9.33,0,12.61,1,1.5,2,2.11,2.57,4,.49,1.62.11,3.06.45,4.67.52,2.48,2.31,3.32,4.47,4.24,3,1.29,5.42,3.75,8.47,5.18a25.52,25.52,0,0,0,9.08,2.19,75.35,75.35,0,0,0,11.14.66c4-.2,8.12-1,12.1-1.55,2.29-.34,6-.54,7.89-2.12,2.27-1.94,1.14-5,1.29-7.58s2.64-3.08,3.47-5.39c.61-1.7.63-4.19,1-6,.28-1.5.63-3,.93-4.45.49-2.41,1.07-4.77,1.6-7.22.85-4,1.42-8.38,3.08-12.13,3.57-8,12.24-12.75,16.85-20.25,2.17-3.53,4.4-6.85,5.66-10.81,1.07-3.35,2.89-6.55,3.36-10,.3-2.15.81-4.25,1.24-6.38s.1-1,1.63-2.41c2.19-2,3.83-6.32,5.13-9a30.65,30.65,0,0,0,2.74-12.06l.19-3.64c.38.38.75.74,1.08,1,3.57,2.95,7.54,5.42,11.18,8.3,3.08,2.44,5.25,4.47,6,8.48.57,3,1.22,5.38,3.48,7.6s6.31,3.17,7.64,6c.48,1,.47,2.3,1,3.38a35.46,35.46,0,0,0,3.59,5.75c4.77,6.64,9.15,13.35,13.37,20.37,3.78,6.3,7.61,12.38,11.76,18.43,1.72,2.51,3.67,4.52,4.86,7.39a15.94,15.94,0,0,1,1,4.73,4.88,4.88,0,0,0,.63,2.59c1.34,1.78,4.29,1.47,6,2.91s2.59,3.28,4.77,4.05c2.59.91,5.61-.18,8.25-.27,3.4-.11,6.65.2,10-.6,2.84-.68,5.64-1,8.5-1.71a39.51,39.51,0,0,1,10.32-1.29c3.28,0,6.41.76,9.72.7,2.13,0,6,.71,7.92-.59C1019.85,454.11,1017.44,446.52,1015.35,443.94Z"/><path class="cls-3" d="M754.8,623.33c-.53-2.81-1.56-5.63-2.25-8.41-.41-1.69-.77-4.36-2.14-5.63-1.62-1.51-6.76-3.21-8.81-3.14-3.09.11-3.65,2.9-3.8,5.44a31.69,31.69,0,0,1-1.33,8.48c-.3.92-.73,3.33-1.39,4.94-4.11-2.47-7.51,7.87-8.81,10.39-2.15,4.18-.75,7.27-1.68,11.58a18.4,18.4,0,0,1-3.75,7.46c-1.8-2-3.72-3.91-5.65-5.74a2.15,2.15,0,0,0-2.49-.54,41.61,41.61,0,0,0-5.76,3.91c-2,1.64-2.39,3.22-3.82,5.27-3.13,4.49-8.5,7.13-13,9.93-.94.58-4.87,3.58-6,3.5-.62,0-1.65-1.28-2.46-1.46a10.44,10.44,0,0,0-2.71.25,17.66,17.66,0,0,1-5.81-1.14c-2.62-.78-5.24-1.27-7.8-2.29-10.78-4.28-20.85-10.3-32.38-12.49A91.25,91.25,0,0,0,617,651.54c-3,0-5.91,0-8.68-1.43l-1.54-.73a.67.67,0,0,0-.52-.57c-1.72-.4-3.68-1.95-1.15-2.26,1-.12,2.29.66,3.33.81a5.49,5.49,0,0,0,5-1.43c4.46-3.95,5.5-10.21,7.4-15.58.86-2.42,2.83-4,3.57-6.37a7.19,7.19,0,0,0-.13-3.31c-.25-1.86-.37-3.64-.44-5.54a79.24,79.24,0,0,1,.65-12.44c.47-4,1.83-7.82,2.13-11.78.85-11.2-11.87-16.38-21.26-17.47-3.15-.37-6.68-1-9.83-.51-3.35.54-6.72,2.34-9.86,3.58-5.93,2.34-13.76,6.33-17.37,11.82-4,6.11-1.73,15.55.23,22,1.26,4.12,1.31,8.22,2.08,12.4.28,1.52,1,2.84,1.16,4.43a20.19,20.19,0,0,1-.09,4.72c-1.43-.16-2.9-.23-4,.86-1.34,1.31-1,3.63-1.75,5.28a1.72,1.72,0,0,0,.11,1.74,1.29,1.29,0,0,0-.57,0c-2.82.48-5.47,2.11-8.29,2.74a57,57,0,0,0-7.38,1.79c-7.18,2.58-15.74,3.14-23.35,2.74-3.9-.21-8.15-1.31-12-.87-3.14.35-6,2-9.23,2.34-4.75.57-9.38.83-13.93-.8-3.37-1.2-6.54-2.76-10-3.6-2.09-.5-3.83-.6-5.72-1.77-1.64-1-3.11-2.22-4.8-3.18-3.29-1.88-6.75-3.24-10-5.22a34.94,34.94,0,0,0-9.33-3.81c-1.85-.54-4-1.24-5.66.14a3,3,0,0,0-1,1.5,15.51,15.51,0,0,0-6-2.23c-5.28-.72-8.51,1.66-13.19,3.46-6,2.32-10.18,7.9-15.69,11.22-4.67,2.81-6.34,5.59-6.22,11.1.13,5.93.61,8.82,6.2,11.5,5,2.4,8.7,7.62,14.84,4.91,4.67-2.07,9.9-4.08,12.94-8.4a43.29,43.29,0,0,1,4.21-5.29c-2,5-5,9.5-6.94,14.71a2.35,2.35,0,0,0,1.35,2.94c9.81,4.92,17.6,12.5,26.89,18.22,7.35,4.53,14,10.69,23,11.79,5.18.64,9.34-1.8,14.22-2.85s10.19-1.85,15.28-2.69,10.51-3.33,15.68-3.57c1,0,1.9,0,2.84,0l-.1.27A51.49,51.49,0,0,0,531,710.65c-1.14,10-3.91,19.89-5.55,29.8-.25,1.53,0,3.64-.52,5.05a19.55,19.55,0,0,1-3.82,5.17c-3.33,3.49-8.09,5.33-11.81,8.36-4.15,3.37-7.82,6.62-12.57,9.15-2.26,1.21-4.43,2.83-6.79,3.83-1.46.62-2.8.67-4,1.73a2.58,2.58,0,0,0-.31,3.59,23.62,23.62,0,0,0,4.72,4c-1.27.67-2.46,1.5-3.69,2.26-3.27,2-7.05,3.07-10.2,5.21-2.85,1.94-4.66,4.84-7.69,6.6a81.56,81.56,0,0,0-8.45,5.11c-6.36,4.83-13.66,8.37-20.47,12.56a31.64,31.64,0,0,0-7.25,6.23c-1.91,2.21-1.65,4.79-1.83,7.57a32.05,32.05,0,0,1-2.24,10.94c-1.45,3.27-3.44,6.14-4.74,9.52a68,68,0,0,1-10.36,18.54c-1.9,2.35-2.27,5.44-4.38,7.56-2.58,2.59-5,5.05-7.45,7.81-2.12,2.4-5.39,3.33-7.24,5.92-1.63,2.28-1.94,5.49-2.13,8.18-.11,1.55.23,3.67-.3,5.1-.67,1.8-2.48,2.67-3.9,3.79a12.75,12.75,0,0,0-4.59,5.89c-1.95,6.34,4.53,7.2,9,8.52,7.39,2.2,13.24,1.81,20.62-.56,4.36-1.4,7.65-2.15,12.22-1.51,4.19.58,8,2.07,12.27,2.41,5,.4,10.61,2,11.47-4.55a26.23,26.23,0,0,0-.08-3c.05-2.35.9-3.81,2-5.77,1.43-2.62,1.21-5.87,1.79-8.78.92-4.55.86-9,3.42-13,2.38-3.76,5.8-6.83,9.13-9.73,5.49-4.8,10.59-11.06,17.21-14.23,7.78-3.73,15.36-8.07,22.75-12.54,2.88-1.74,5.58-3.06,7.51-5.89.76-1.12,1.45-3.15,2.54-3.95,1.55-1.15,1.88-.23,3.6,0,2.63.35,5.46-1.24,7.79-2.27,3.29-1.46,6.67-3.35,10.05-4.5,7.13-2.45,14.52-4.2,21.51-6.8,4,1.41,8.25,1,12.36,2,10.2,2.67,20.76,2.6,31,5.06a58,58,0,0,0,13.36,2.06c4.48,0,8.59-1.77,13.1-1.66,1.88,0,3.59-.43,5.42-.53,2.48-.13,2.85.94,4.47,2.61,1.4,1.45,2.09,1.09.82,3.15a15.87,15.87,0,0,0-2,3.51,2.46,2.46,0,0,0,2.08,3.27,10.86,10.86,0,0,1,2.18-.07,1,1,0,0,0,.41.07,1.13,1.13,0,0,0,0,.21c0,.08-1,1.26-1.14,1.42-1,1.41-1.76,3.11-1.06,4.79a4,4,0,0,0,1.27,1.58c.2.17.63.4.95.62l0,.19c.38,3-.73,6.43-.71,9.49,0,6.47,1.34,12,2.53,18.32a26.55,26.55,0,0,1-.22,10.41c-.5,2.51-1.88,5.27-1.47,7.85.34,2.17,2,4,3,5.83s1.89,3.88,3.52,5.29c3.47,3,6.63,1,10.36.87s7.56,1.56,11.11,2.4a64.43,64.43,0,0,0,9.73,1.27c6.33.52,13,1.85,19.21,0,3.11-.92,7.5-3,7.79-6.74.14-1.79-.94-3.15-1.86-4.59a64.82,64.82,0,0,1-4.62-7.92c-2.34-5.35,1.49-11.93-1.26-17.2-3.25-6.23-2.7-12.42-2.68-19.19,0-3.59.87-7.11,1.12-10.68a49.6,49.6,0,0,0-.67-10,102.44,102.44,0,0,1-.74-20.78c.41-5.8-1.36-10.87-1.94-16.48-.19-1.82.18-4-.88-5.6s-4-3-5.68-4.12a77,77,0,0,0-17.31-8.19c-3.25-1-6.57-2.29-9.89-3.07-3.91-.91-8-1-12-1.37a99.47,99.47,0,0,0-13.59-.21c-.24-1.36-.51-2.73-.76-4.14-.64-3.69-1.17-6.34-3.93-9a3.53,3.53,0,0,0-1-.38,4.47,4.47,0,0,0,.32-1.75c-.09-1.47-1.25-2.2-2.29-3-.69-.49-1.07-.07-1.58-.93s0-2.17.16-3.24a10.34,10.34,0,0,0-.36-6,8.86,8.86,0,0,1-.7-5.26,52.38,52.38,0,0,1,1.81-9.64c.81-2.88,1-5.78,1.92-8.67.95-3.08,1.9-6.13,2.93-9.17a30.29,30.29,0,0,0,1.29-7.15l2.37.21a121.56,121.56,0,0,1,13.78,2.35c7.64,1.54,15.55,1,23.21,2.5,2.55.51,5.08,1.09,7.64,1.52,2.24.38,4.36.2,6.56.93,1.42.48,2.56,1.29,4.12,1.3a7.87,7.87,0,0,0,5.56-2.76c2.94-3,5.39-6.55,8.2-9.65,5.6-6.19,12.23-11.09,18.62-16.48,3.37-2.84,6.77-4.46,10.42-6.8,1.86-1.19,4.42-2.55,5.58-4.5,1.5-2.52.11-5-1.88-7.16.35-.87.67-1.76,1-2.67a20.77,20.77,0,0,1,1.54-3.52c1.21-2.21,1.11-1.21,2.76-2.2,3.63-2.19,5.22-4.75,6.42-9C750.81,643.13,757,634.83,754.8,623.33Z"/><path class="cls-3" d="M363.56,911.81c-2.21-3.17-4.09-5.91-7.09-8.43a7.76,7.76,0,0,1-3.25-6.41c-.12-1.9.2-3.89.24-5.8a55,55,0,0,0-1.06-12c-1.5-7.56-4.62-13.17-9.69-18.86a45.92,45.92,0,0,1-6.6-10c-1.79-3.52-4.88-6.63-6.27-10.28-2.53-6.66-.5-14.66-4.89-20.75-2.05-2.85-4.61-5.52-6.87-8.23-2.5-3-5.82-4.56-8.87-6.88-3.32-2.52-6.44-5.3-9.8-7.78s-7.38-4.27-11-6.55c-6.37-4-11.48-10-18.5-12.74,1.71-3.75,3.51-6.78-.48-9.8-6.39-4.85-7.53-11.8-9.62-19.17a179.12,179.12,0,0,1-4.61-20.27c-.64-3.9-1.58-7.71-1.39-11.69.15-3.35.7-6.66,1.07-10,.35-3.12.45-6.41,1.32-9.43,1-3.45,2-6.88,2.93-10.36,1.54-5.94,3.44-12.44,2.54-18.63-.81-5.6-5.24-10.72-9.33-14.4-4.52-4.07-8.25-8.73-13.75-11.58-4.18-2.17-5.93-4.62-7-9.12-.51-2-1.51-4-2.21-6a16.45,16.45,0,0,0-1-3.21c-1.05-1.6-3-1.67-4.94-1.06a16.36,16.36,0,0,1,1-9.53c2.85-6.63,5.47-12.58,5.55-19.93.07-6.4-1.28-10.54-5.32-15.48-2.09-2.57-5.09-4.16-7.58-6.29s-4.91-4-7.47-6c-4.31-3.31-9.78-3.55-14.87-1.82a30.08,30.08,0,0,0-7,3.53c-2.76,1.86-6.09,3.25-8.67,5.34-4.21,3.42-7.15,9.37-6.53,14.76.26,2.23-.09,5.33,1.44,7.19a5.48,5.48,0,0,0,2.45,1.65l.3.06c.14,3.21,1.43,6.49,1.3,9.74-.07,1.77-1.06,3.46-.84,5.22a14.59,14.59,0,0,0,.79,2.14,11.85,11.85,0,0,1,0,6.28c-1.86,8.29,4.54,13.41,8.23,19.72a22.44,22.44,0,0,1-4.34.19c-4-.18-7.45-.09-11.27-1.31q-9.59-3.08-19.14-6.27c-6-2-10.61-6.07-17-7-6.63-1-13.15.12-19.54-2.08-6.88-2.37-12.2-6.73-17.94-11a48.65,48.65,0,0,1-6.85-5.68C88.51,604.1,87.2,602,85,601.09s-5.26-.88-7.61-1.08a8.81,8.81,0,0,0-5.5.85,3,3,0,0,0-1.38,3.52c-2.49-.75-5-1.34-7.33-.44-1.91.73-3,2-4.47,3.37a80,80,0,0,1-6.86,5.42c-3.47,2.52-7.38,4.5-8.54,8.92-1,3.62-2,9.14-.59,12.72,2.68,6.64,14.42,9.88,20.76,8,3.08-.89,3.84-4,3.92-6.84.12-4,.33-7.47-1.15-10.85a10.54,10.54,0,0,0,2.52-1.3c1.7-1.21,2.62-2.6,4.57-2.49,0,.06,0,.12,0,.18,0,4,.13,7.88-.91,11.79s-3.22,7.86,1.6,9.79a74,74,0,0,1,16.73,9.55c4.54,3.4,9.83,6.83,13.22,11.46s9.16,3.18,14.22,4.36a62.24,62.24,0,0,1,18.51,7.29c6.13,3.63,10,9.69,15.6,14,2,1.58,4.42,2.52,6.4,4.21,3,2.52,3.59,3.85,3.12,7.73-.9,7.41.44,14.6.24,22-.09,3.58-.58,7.36-.18,10.92.29,2.61,1.42,4.13-.8,6.79-1,1.16-2.47,2-3.55,3.1-4.7,4.76-8.36,10.45-13.27,14.91-3.71,3.36-3.59,7.79-.61,11.11-1.46,1.15-2.93,2.29-4.43,3.39-6.24,4.56-13,8.12-19.44,12.35-11.84,7.77-23.69,16.57-32.57,27.56-4.11,5.09-1,10.51.66,16,2.4,7.91,3,15.45,3,23.68a41,41,0,0,1,.08,5.12c-.26,1.93-1.59,3.27-2.5,4.91a29.9,29.9,0,0,0-3.05,9.27c-.68,3.64-2.12,7.21-2.58,10.86s.09,5.94-2.7,8.62a2.26,2.26,0,0,0,1,3.75l.72.2c-.7.74-1.42,1.47-2.14,2.15-4.35,4.07-8.93,8-13.49,11.85-2.07,1.75-4.93,4.74-1.83,7.07,1.35,1,3.33,1,4.92,1.06,3.22.21,6.17.76,9.43.67,6.55-.18,13.12-.14,19.68-.09,2.8,0,5.31-.56,8.05-.66,2.45-.09,4.9.33,7.31-.38,3.89-1.15,9.06-4.06,11-7.79a9.15,9.15,0,0,0,.58-1.4l.45.05c2.47.28,5,1.13,7.44,1.07a2.26,2.26,0,0,0,2.14-2.81c-1.08-6,.15-11.91.11-17.94a64.85,64.85,0,0,0-.44-8.43c-.58-4.23-.71-6.38,1-10.37a19.36,19.36,0,0,0,.92-2.5,13.5,13.5,0,0,1,2.77-5.63,55.72,55.72,0,0,0,4.36-6.75c1.21-2.23,1.7-4.73,2.87-7s2.83-4.28,4.16-6.41c1.47-2.35,3.07-4.63,4.55-7s2.63-5.66,5.4-6.73c5.58-2.15,11.4-3.8,17.11-5.54,5.89-1.8,12-3.36,17.58-5.88,5.11-2.28,10.26-4.71,15.31-7.11,2.4,1.63,4.92,3.07,7.28,4.8,6.73,4.93,14.2,7.17,21.45,11a91.73,91.73,0,0,1,19.54,14.18c2,1.85,2.47,4.16,5.32,4.91,2,.54,2.48.23,3,2.33.36,1.35.3,2.52,1,3.81,1.47,2.73,4.43,4.54,6.58,6.72a40.31,40.31,0,0,1,8.27,11.19c1.49,3.2,3.34,6,5.11,9,.89,1.53,2.13,2.92,2.92,4.49,1.24,2.45.72,4.88.82,7.48.24,6.48,2.53,11.69,8.09,15,2.85,1.7,6.6,3.19,8.33,6.21s1,6.62,4,8.82c2.2,1.6,5.54,1,8.06,1.49a31.35,31.35,0,0,0,9.54.51c8-.89,15.61-2.08,23.75-1.35,3,.27,12.13,2.45,12.6-2.45C367,915.39,364.66,913.39,363.56,911.81Z"/><path class="cls-3" d="M1308.9,443.95c-2.84-1.76-5.56-3.87-8.36-5.72-3.91-2.58-2.6-6.19-3.47-10.18a38.83,38.83,0,0,0-3.11-9c-1.38-2.64-3.86-3.67-6-5.66-5.53-5.22-6.45-12.69-8.17-19.65a67.83,67.83,0,0,0-2.66-9.32c-1.41-3.48-3.44-6.69-5-10.12-3.7-8.27-5.94-17-9.67-25.21-3.12-6.86-6.71-13.95-11.31-20-5.34-7-11.88-13.13-17.35-20.05-2-2.52-4.57-4.49-6.58-7-2.25-2.83-4.36-5.81-6.72-8.55a18.71,18.71,0,0,0,2.09-10.77c-.56-5.34-3.18-10-4.47-15.06-.65-2.55-.56-6.08-.8-8.72s-.71-5-1.07-7.54c-1.49-10.7,1.14-22.84,3.29-33.31a41.08,41.08,0,0,0,.7-6.68c.12-2.55.89-5,1.17-7.56.32-3,1.32-6.27,1.88-9.5.4.9.81,1.8,1.27,2.67,1,2,1.51,4.39,3.29,5.8a19.12,19.12,0,0,0,5.25,2.35c10,3.32,19.14-3.31,23.76-11.66a27.85,27.85,0,0,0,0-27.67,22.57,22.57,0,0,0-4.83-6.23,16,16,0,0,1-5-7c-1.77-4.2-3.48-5.84-7.67-7.52a2,2,0,0,0-2,.53,6,6,0,0,0-1.46,2.53c-.11.32-.2.66-.28,1-1.15-4.36.41-9.87.18-14.21a42.26,42.26,0,0,0-2.72-13.91c-2.06-4.94-8-15.2-13.23-7.57-2.18,3.16-2.5,7.22-3.1,10.9-.17,1-.25,2.06-.38,3.09-.09.14-.15.26-.22.38a17.76,17.76,0,0,0-1.64-1.64c-1.62-1.32-3.71-1.63-5.09.19-1.57,2.07-.66,6.2.09,8.92-1.92,1.57-5.4,4.07-7.44,3.26s-1.82-4.46-2.93-6.06a15.59,15.59,0,0,0-1.83-2.18c.95-.85,1.95-1.66,2.84-2.56a24.83,24.83,0,0,0,5.89-9.49c3-8.8,4.23-17.94,5.24-27.12a1.62,1.62,0,0,0,0-.42,7.57,7.57,0,0,0,2.63-1.75,8.68,8.68,0,0,0,1.59-5c.4-5.94-2.6-10.62-4.86-15.89-1.54-3.58-4.49-7.82-7.8-10-3.9-2.56-9.63-1-13.89-.33-5.53.84-11.27,0-16.78,1.23-5.11,1.11-10.35,1.7-13.64,6.18s-3.65,9.4-3.78,14.64c-.14,5.52,1.45,9.82,3.72,14.86,1.58,3.51,3.37,6.08,3.45,10a69.34,69.34,0,0,0,1.1,8.45,33.32,33.32,0,0,0,.91,4,8.37,8.37,0,0,0-3.39,3.47,8.13,8.13,0,0,0-.42,2.84,20.16,20.16,0,0,1-1.86,6.73c-1.59,3.59-5.07,7.38-9,8.07-6,1.05-14,3.37-17.8,8.54-4.4,6-4.15,13.92-5.54,20.9a43.41,43.41,0,0,0-1.3,9.73c.08,4.79,0,9.6,0,14.39,0,8.09-.41,16-1.07,23.95-.7,8.49-3.08,16.15-6,24.12-1.48,4.09-3.3,7.84-5.11,11.79s-2.86,8.38-4.39,12.58c-1.61,4.39-3.78,8.59-4.66,13.22a31.79,31.79,0,0,0-.33,6c0,1.6-.56,3.25-.51,4.82.08,2.59,2.2,3.64,4.18,4.87a60.9,60.9,0,0,0,7.59,4.55c.07.47.13.94.21,1.42,1.48,8.21,3.46,16.47,5.32,24.61,1.61,7,3.75,14.07,5.59,21.07,1.91,7.26,4.65,16.14,3.1,23.71-.59,2.89-2.34,5.36-2.08,8.44.31,3.64,3.8,5.29,1.8,9.23-1.42,2.79-2.16,4.25-2.16,7.48a36.23,36.23,0,0,1-.83,9.22c-1.36,4.73-7.49,6.87-10.35,10.62-1.67,2.19-2.4,4.8-3.53,7.28-1.68,3.69-3.64,7.15-5.11,11-1.4,3.6-3,7.14-4.22,10.82s-2,7.86-4.06,11.28c-2.61,4.25-7.81,8.2-4.08,13.43,2,2.82,5.38,3.73,7.59,6.2,1.95,2.17,3.12,3.63,5.8,5.06,6.42,3.43,13.72,2.78,20.71,3.77a49.14,49.14,0,0,0,20.15-1.22c5.6-1.48,8.45-4.29,8.52-10.17a61.89,61.89,0,0,1,1.23-8.72c.69-4.3,3.86-7.92,4.44-12.34.9-6.85,1.29-13.41,4.69-19.62,2.07-3.8,4.17-7.41,6.08-11.3.9-1.84,1.91-3.62,2.84-5.44s1.27-4,2.06-6c3-7.72,7.18-14.84,10.17-22.52,2.47-6.33,5.21-12.16,5.15-18.94,1.54,1,3.19,1.87,4.78,2.79,4.3,2.49,6.73,5.77,8.6,10.32,2.51,6.08,4.08,12.47,7.11,18.32a111.06,111.06,0,0,0,12,18.38c2,2.51,4.86,4.49,6.57,7.18,2,3.11,2.91,7.26,3.85,10.79,1,3.76,2.83,7.63,3.2,11.48.24,2.5.31,5.15,1.65,7.36,1.17,1.93,3.19,2.76,5,4,2.39,1.61,4.32,1.34,7.12,1.34s4.17,0,6.61-1c3.9-1.55,6.74.58,10.61,1.32,6.08,1.16,12.37,1.31,18.54,2,3.24.35,6.49.13,9.76.51a50.83,50.83,0,0,0,11.05-.1c4.75-.51,9.57-.89,9.43-6.93S1313.26,446.65,1308.9,443.95Z"/><path class="cls-3" d="M1247.08,717.31c.23-.71.47-1.42.72-2.13a54.63,54.63,0,0,0,5.81,1.19c6.58,1,13.25.41,19.82,1.28,5.91.78,12.15.22,18.07-.22,5.76-.42,9.76-3.66,14.29-7,9.41-7,17.66-16.17,25.69-24.66,3.88-4.1,7.46-8.86,11.61-12.63a38,38,0,0,0,9.35-13.22c1-2.39,1.27-4.93,2.58-7.21.92-1.59,2.84-2.84,3-4.82.25-4.07-5.57-6.54-8.63-7.57l-.17-.06a18.56,18.56,0,0,0,2.68-9.2c.21-4.44-.41-9,.38-13.34.53-3,2.6-5.31,3.3-8.29.73-3.15-.49-6.57-1.66-9.48-1.41-3.51-3.51-5.33-5.85-8.1-1.83-2.17-2.42-5.29-5.73-5.58-3.49-.31-6.36,3.39-9.62,4.14a1.93,1.93,0,0,0-1.39,1.83c-.08,2.35-.85,4.59-1.08,6.94-.36,3.65-.28,7.26-1.23,10.85-.23.87-.65,3.06-1.49,3.64q.05,1.22-.78.19l-1.2-.51a2.72,2.72,0,0,0-3.12,1.16c-1.84,3.18,2.46,9,3.94,11.49,2.19,3.76,2.22,6.09.83,10-3.11-.22-6.67-.11-7.75,2.14-.7,1.46-.06,3.2-.25,4.74-.55,4.64-4.32,5-7.74,6.71-4.7,2.35-8.23,8.49-11.55,12.44-1.87,2.22-3.82,5-6.92,4.94s-6.14-1.76-9.14-2.43c-5.74-1.27-11.66-.87-17.35-2-7.45-1.46-14.89-3-21.23-7.38-5.53-3.83-11.49-4.7-17.74-6.88a36.71,36.71,0,0,0-12.85-1.63,8.3,8.3,0,0,0,.07-1.63,5.84,5.84,0,0,0-2-3.93,6.29,6.29,0,0,1,1.6-3.9c2.05-1.88,6.09-1,8.48-2.83,2-1.53,1.75-3.62,1.81-5.93.09-3.11,3.2-7.78,5.62-10,1.35-1.23,2.89-1.85,2.53-4.06a5.45,5.45,0,0,0-1.45-2.54,13.24,13.24,0,0,1-3.43-5.65c-1.09-3.7-1.94-9.44-.68-13.21,1.08-3.24,4.23-5,4.47-8.87a6.32,6.32,0,0,0-3-5.8c-2.67-1.85-5.43-4.3-8.42-5.6a25.76,25.76,0,0,0-9.52-1.74c-4.6-.18-8.48.83-13,1.17-7.43.56-15,1.4-21.4,5.66-5.38,3.6-10,10.09-12.14,16.14-2.79,7.86.77,15,6.31,20.51,3.68,3.63,9.1,6.9,9.15,12.49a19.63,19.63,0,0,1-.21,2.94c-3.2,1.15-5.95,3.09-7.25,5.72a24.56,24.56,0,0,0-2,5.85,23.41,23.41,0,0,0-7.84,4.42c-5.17,4.15-13.22,5.48-17.24,11.15a45.63,45.63,0,0,1-3.22,3.88,1.14,1.14,0,0,0-.35-.18c-1.44-.44-2.37-1.33-3.87-1.65a21.16,21.16,0,0,0-2.72-.19c-4.47-.36-6.34-2.53-6.31-7.22,0-3,0-5.25,1.92-7.66,1-1.3,2.37-2.46,2.74-4.13a1.91,1.91,0,0,0-1.32-2.33,11.35,11.35,0,0,0-7.33,1.7,8.15,8.15,0,0,1,.22-2c.52-2,1.52-2.8,2.67-4.12s2.9-2.84,3.48-4.69c.43-1.38-.13-2.3-.63-3.51-1.28-3.12-.6-7.12-.6-10.47,0-5.63-.61-12.37-2.8-17.62-1.63-3.91-5.38-2.32-7.86.07-1.51,1.46-2.3,3.67-3.06,5.59-.61,1.52-.93,3.39-2.06,4.65s-2.51,2-3.58,3.11c-4,4.19-5.32,8.71-4.81,14.49.46,5.25.83,10.7,1.67,15.9.38,2.38,1.38,4.29,1.93,6.46a22.61,22.61,0,0,0-5.17,2.4c-3.06,2.09-2.49,6.36-1.3,9.37,2.56,6.44,4.66,14.5,2.32,21.25-1.72,5-2,10.25-2,15.45,0,4.39.65,9.84,3.25,13.58,1.13,1.62,3.06,2.39,4.79,3.17s3.73,2.36,5.65,2.82,4.22-.56,6.19-.94c3.44-.66,7-.9,10.43-1.35a82.79,82.79,0,0,0,13.78-3.21,181.06,181.06,0,0,0-1.73,19.08c-.25,7.53-1.09,15-1.32,22.55-.12,3.86.41,7.09-1.79,10.47a26.78,26.78,0,0,0-3.72,6.82c-1.87,6.25.45,13.52-.2,19.94-.51,5-5.63,7.58-3.15,12.51.48.95.91,1.94,1.4,2.88-3,4.64-5,10.57-7.12,14.63-2.36,4.44-5.68,8.34-8.12,12.75-2.56,4.61-5.83,8.59-8.57,13.08-3.1,5.09-6,10-10,14.46-3.2,3.6-6.44,6.71-8.22,11.26-2,5.09-5.28,8.92-7.73,13.73-2,3.84-2.57,7.63-.71,11.64.9,1.94,2.48,2.33,3.61,3.9s.32,3.1.44,4.81c.21,3,1.71,4.56,4.66,5,4.5.68,9.52-.4,14-.79a144.6,144.6,0,0,0,15.88-2.61c5.28-1.06,10.63-1.43,15.91-2.47,3.34-.66,8.6.82,10.65-2.86,1.81-3.26-.6-7.08-1.78-10.06-.74-1.87-2.33-5.06-2.18-7.16.22-3.12,2.25-6.62,4-9.11,1.53-2.17,3.37-4.11,4.92-6.26s2.57-4.72,4.12-6.92A20.3,20.3,0,0,1,1168,854a46,46,0,0,0,6.6-3.66c4.69-3.43,5.38-9.06,9.22-13.17a82.9,82.9,0,0,1,9.38-8.77c2.35.37,4.68.64,6.91.84,3.84.36,8.27,1.38,12.1.51,5.05-1.15,9.74-1.08,14.94-1,10.62.1,21.25-.05,31.87.19,4.86.11,9.89.54,14.71-.34,2.82-.52,5.64-1.17,8.47-1.77a8.13,8.13,0,0,0-.79,1.81c-.94,3-.44,6.67-.68,9.78a6.49,6.49,0,0,0,1.48,4.94c1.45,2.14,2.2,3.59,1,6.07a28.41,28.41,0,0,0-2.29,4.72c-1.83,6.36-2.1,13.42-2,20,0,3.1-.6,6.12-.67,9.22-.09,4.18.26,8.29-1.54,12.18s-3.11,11.73-.05,15.45c1.34,1.63,3.44,1.73,5.42,1.79a97.68,97.68,0,0,0,11.1.12c15.4-1.35,30.31-5.33,45.82-5.35,2.48,0,5.14.22,7.47-.76,2-.83,5.74-3.19,6.89-4.93a3,3,0,0,0-.28-3.72c-.82-1.07-2.32-1.88-3.29-2.79-1.37-1.29-2.57-2.75-3.94-4-2.51-2.36-5.94-3.31-8.29-5.73-.82-.84-2.46-2.28-2.86-3.29s-.24-2.72-.6-3.93c-.89-3-1.84-6-2.88-8.91-1.09-3.08-2.62-5.52-2.72-8.87-.11-3.85,1.46-7.29,1.93-11.1.4-3.27.57-6.56,1-9.8.86-6.21,1.17-12.69,1.47-18.94.36-7.65,0-15.39,0-23,0-3.16.46-6.38-.08-9.52-.49-2.85-.73-6.6-2.69-8.87-4.08-4.73-10.89-6.06-16.77-6.68a164.75,164.75,0,0,0-27.6-.6c-4.42.3-8.59.88-13,.33-4-.5-8-1-12-1.36-1.26-.12-2.55-.19-3.85-.21a29.51,29.51,0,0,0-1.75-3.82c-1.68-3.16-3.33-3.64-6.85-3.43-2.32.14-4.78,1.08-6.74-.44a14.91,14.91,0,0,1-3.71-5.76c-.63-2.15-.86-4.38-1.55-6.55-1-3.08-1.21-5.19.32-8.13A163,163,0,0,0,1247.08,717.31Z"/><path class="cls-3" d="M203.22,360.68c6.25.3,12.39,1.23,18.3-1.39a29.17,29.17,0,0,0,7-4.77c2.95-2.48,6-2.39,9.48-3.69,5.4-2,11-1.95,14.11-7.49l.83-1.51c1.59,3.17,2,7.6,3.24,10.68a133.51,133.51,0,0,1,5,15.5c1.45,5.27,2.63,10.62,4.37,15.8,1.65,4.88,3.54,9.62,4.83,14.63,2.25,8.76,2.94,17.89,5.7,26.51.67,2.1,1.7,4,2.48,6a38.47,38.47,0,0,1,1.66,8c.64,4,.83,6.94,2.82,10.48,1.27,2.25,1.94,3.71.23,5.94a25.65,25.65,0,0,1-5.21,4.81c-2.46,1.78-5.64,2.43-7.53,4.91-1.73,2.28-2.63,4.53-4.85,6.48a35.34,35.34,0,0,1-3.94,2.92c-1.68,1.11-3.92,2.45-4.72,4.42-2.11,5.23,4.55,5.69,7.92,5.21,9.47-1.36,19.06.08,28.64-.77a105.8,105.8,0,0,0,14-2.09,11.07,11.07,0,0,1,6.7.14c1.64.56,3.14,1.33,4.85,1.74,6.39,1.52,15-2.66,18.76-7.82,4.51-6.1,2-12.36.77-18.91-.79-4.23-3.08-7.79-5.28-11.41-2-3.38-5.13-5.81-7.2-9.15-2.52-4.07-3.28-8.66-4.72-13.14-1.34-4.19-3.81-7.88-5.47-11.95-3.52-8.59-4.91-17-6.28-26.14-1.34-9,1.72-17.28,1.28-26.16-.22-4.51-2.64-7.61-4-11.74-1.61-4.95,2-8.45,4.57-12.22a27.91,27.91,0,0,0,4.73-10.78c.7-3.4.18-6.74.64-10.13a40.68,40.68,0,0,0,.44-6.33c0-2.39-.81-5.13,1.18-6.61,2.77-2,6.77-1.55,9.62-3.44,3.73-2.47,7.37-5,11.57-6.72,3-1.21,5.41-2.43,7.28-5.12a31.37,31.37,0,0,0,3.92-7.51l.16-.1c2-1.56,4.65-2.06,6.54-4.06,2.61-2.77,1.36-5.23,1.12-8.61a73.78,73.78,0,0,0-5.55-22.84c-1.73-4.13-3.49-7.07-2.71-11.65.5-2.92,1.33-5.92,1-8.89a23.5,23.5,0,0,0-2.21-8.59c-1.72-3.27-4.15-5.52-6.18-8.51-2.51-3.7-3.4-8.29-5.13-12.37A110.24,110.24,0,0,1,333.58,180c-2.19-7.44-3.56-15-5.58-22.53-1.18-4.37-3-8.6-4.61-12.84a53.49,53.49,0,0,0-4.3-9.8c-1.32-2.12-2.69-4.87-5-6.12-1.38-.76-3-.77-4.43-1.36-1.3-.52-2.48-1.28-3.84-1.74-4.83-1.64-6.85-3.87-10-7.72a57.24,57.24,0,0,0-6.92-7,14.67,14.67,0,0,0-2.84-2c-.36-1.27-.67-2.51-1-3.67-1.26-4.71-.46-9.34.58-14,.89-3.93.54-8.6.25-12.61-.27-3.82-2-6.58-4.13-9.65a60.66,60.66,0,0,0-7.6-8.95c-2.53-2.49-5.44-3.09-8.81-3.83-6.5-1.43-12.83-1-18.39,2.8-3.59,2.44-6.91,4.12-9.77,7.41-2.38,2.74-5.63,4.52-8,7.26-5.14,5.9-7,11.55-5.68,19.26a10.24,10.24,0,0,0,3.94,6.49,36.3,36.3,0,0,0,3.28,2.06c3,2,2.36,4,2.77,6.77a35.28,35.28,0,0,1,.69,6.14,8.69,8.69,0,0,0,.2,3.14c.89,2.34,3.59,2.7,5.5,3.89,5.11,3.17,1.39,12.37,9,12.65,3.26.12,8.14-3.14,10.15.23a9.07,9.07,0,0,1,.87,2.53,19.52,19.52,0,0,0-6.64,2.47c-5.67,3.38-11.91,8.18-14.58,14.43-.64,1.5-.73,3.11-1.24,4.62-.83,2.42-2.68,3.8-4.12,5.79-2,2.71-3.47,5.78-5.36,8.56-4.27,6.29-10.53,11.67-15.86,17.06-4,4.05-8.35,7.35-8.67,13.52-.18,3.35.54,6.55.76,9.86.18,2.77.08,4.91,1.5,7.37,3.17,5.48-4,11.48-4.85,17.27-.84,5.45,1.47,11.43,3.69,16.3,2.15,4.69,5.44,6.82,10.7,6.24.74-.08,2.85-1,3.25-.74s.16,1.72.14,2.48c-.07,3.37.07,6.75.12,10.11.1,7,1.47,17.24-2.74,23.23-1.81,2.57-2.9,4.15-3.4,7.42a44.2,44.2,0,0,1-1.87,8.79c-.85,2.35-2.47,5-2.08,7.63.32,2.14,2.13,4.27,3.1,6.18.75,1.48,1.87,2.89,1.6,4.61-.31,2-2,2.91-3.45,4.08a37.93,37.93,0,0,0-5.14,5.73c-1.9,2.35-3.7,4.58-5.79,6.76a8.4,8.4,0,0,0-2.5,5.38C196.11,357.12,197.84,360.42,203.22,360.68Z"/><path class="cls-3" d="M1012.87,891.62c-3.67-4-8.59-6.82-12.41-10.68-2.69-2.72-5.37-5.49-5.87-9.39-.44-3.43-1.33-6.74-1.9-10.16a140.34,140.34,0,0,1-2.12-23.29c0-9,2.38-17.73,2.36-26.66,0-8,.87-17.06-2.71-24.49a14.69,14.69,0,0,0-2.21-3.29c-3.31-5-9.89-8-15.56-9.36a130.29,130.29,0,0,0-17.37-2.58,65.2,65.2,0,0,1-6.65-1c-1.36-.43-2.72-.91-4.07-1.48a.63.63,0,0,0-.8.26,44.35,44.35,0,0,1-8.18-3.33c-3.86-2.08-5.44-6.42-9.67-8-5.34-2-13.11,0-16.92-4.66-1.59-1.94-4.34-3.93-5.34-6.23-1.85-4.24,3.2-3.71,5.9-4.18a15.64,15.64,0,0,0,6-2.73c2.09-1.41,4.51-2.33,6.5-3.84,2.43-1.84,3.72-2.77,6.86-2.7a40.52,40.52,0,0,0,6.15.16,11.59,11.59,0,0,0,5.67-2.42c2.25-1.71,4-5.22,6.81-5.54,3.36-.38,7.29,1.07,8.11-3.48.9-5-.67-11.27-2.14-16-1.4-4.48-5.34-5.67-9.65-5.69a63,63,0,0,0-8.92.18c-1.71.24-3.59,1.29-5.36,1.82-.19-3.77.54-7.61-.32-11.38a37.49,37.49,0,0,0-4.89-11.22c-2.54-4.12-2.17-9.24-3.46-13.81a31.68,31.68,0,0,0-4.82-10.58c-2-2.63-4.85-4.07-7.59-5.85-3.75-2.43-7-5.39-11-7.48-1.75-.92-3.48-2.12-5.27-2.92-.71-.32-1.45-.58-2.18-.83l.22-.26c1.26-1.32,2.45-2.14,3.15-3.88A41.78,41.78,0,0,0,895.67,624c.19-2,0-4,.49-6a18.16,18.16,0,0,1,3.77-6.61c4.32-5.47,11.62-8.69,12.83-16.38a24.15,24.15,0,0,0-.75-8.63c-1.15-4-4.48-3-7.2-5.4a66.18,66.18,0,0,1-8-8.18c-2.31-2.84-5.71-5-8.67-7.12-5.77-4.12-13.67-7-20.81-6.07a26.86,26.86,0,0,0-17.42,10.71c-4.5,6.18-5,14.91-5,22.26,0,4.3-.28,8.59.41,12.8.33,2-.11,3.86.78,5.75.76,1.61,2.51,2.51,3.32,4,1.12,2-1.33,7.18-1.86,10.88-3.38-.27-5.91.45-9.27,1.17a33.6,33.6,0,0,0-9.47,3.39c-3.31,1.78-7,4-10.53,5.3-2.59.95-5.63,1.24-7.83,3s-3.29,4.14-4.22,6.59c-2.56,6.72-3.48,15-3.7,22.21-.11,3.61,0,7,1.28,10.44,1.63,4.18,3.16,6.76,2.37,11.4a66.42,66.42,0,0,0-.75,20.42c.57,4.35-.06,8.72.46,13.09a31.89,31.89,0,0,1-1,11.24c-.87,3.83-3.65,6.38-5.15,9.9C798,748,796.72,752,794.86,755.8a71.93,71.93,0,0,0-4.23,11.2c-.71,2.4-2,4.5-2.81,6.8a3.91,3.91,0,0,0-.41,2.37c.56,2.61,3,3.81,5.85,4.3a20,20,0,0,0,1.37,11,32.42,32.42,0,0,1,1.86,8.69,36,36,0,0,1,.55,4.5c0,2.63-.86,3.64-2.63,5.44-4.29,4.38-6.91,9.27-10,14.48-1.22,2-2.38,4.17-3.74,6.09s-2.91,3.32-3.87,5.54c-2.38,5.45-2.35,11.39-2.7,17.19-.41,6.84-2.14,13.29-3.64,19.94-1.11,4.93-6,8.38-8.35,12.81a61.71,61.71,0,0,0-3.24,5.95c-1.17,2.87-3.77,4.1-5.15,6.7a6.76,6.76,0,0,0-.37,5.06c.31,1.14.91,2.13,1.33,3.22.75,2,.2,2-.41,3.78-1.45,4.35,1.7,6.54,4.65,9.17a19.47,19.47,0,0,0,5.81,3.93c2.65,1,6,.24,8.68,0,3-.31,5.76-1.17,8.85-1.24a57,57,0,0,0,9.54-.86,20,20,0,0,0,6.12-2.52c1.57-.9,3.06-1.08,4.65-1.89,3.41-1.74,6.07-4.76,5.62-8.72-.36-3.14-2.06-5.82-1.62-9a78.63,78.63,0,0,1,2.52-9.81c.91-3.31,2.45-6.36,3.5-9.62s1.5-7.07,4-9.49c2.11-2.06,5.07-3,7.27-5.09a33.86,33.86,0,0,0,5.49-7.16c3.59-5.81,7.55-11.63,9.94-18.07,2.48-6.68,4-13.68,6.45-20.3,1.22-3.23,2.36-6.5,3.52-9.76,3.58.07,7.17.15,10.74,0,4-.19,8-.77,12-.35s8.1,2,12,3.37c4.44,1.55,8.91,3.11,13.2,5,5.74,2.58,13.22,5.12,19.51,3.42,3.28-.89,6.21-2,9.69-1.85,2.36.09,4.22.47,5.55,2.68a20,20,0,0,1,2.31,5.68c.47,2.51.34,4,2.44,5.67s2.95,2.7,3.09,5.49c.12,2.28-.74,3.86-1.59,5.86-.72,1.69-1.28,3.65-.44,5.41,1,2,2.91,2,4.51,3.15,2.46,1.81.39,5.36.63,8,.33,3.62,1,7.08-.69,10.39-2.27,4.5-2.66,9.89,1.87,13.29.64.48,1.84.76,2.39,1.31,1.44,1.46.67,2.53.42,4.34s-.46,3.72,1.23,4.94c1.88,1.36,5.59,1.56,7.78,1.81,3.69.42,7.53.77,11.24.83,7.63.12,15.23.57,22.9.6a45.76,45.76,0,0,0,9.8-.92c3.65-.73,7.42.5,11.09-.2C1014.8,897.6,1015.46,894.44,1012.87,891.62Z"/><path class="cls-3" d="M649.52,230.13a49.74,49.74,0,0,0-5.38-4.12c-1.55-1-4.67-.89-5.53-2.33-.65-1.09-.28-2.67-1.35-3.67a5.46,5.46,0,0,0-2.2-1l.07,0a6.11,6.11,0,0,0,1.17-2.1,6.61,6.61,0,0,0-.63-5.59c-1.78-3.41-3-7.1-5.57-10-3.09-3.59-2.41-8.61-7.12-11.14a13.21,13.21,0,0,0-4.45-1.3c-3-.41-4.7-.27-6.57-3.21a51.93,51.93,0,0,0-3.43-5.57c-1.79-2.17-3.74-4.06-5.33-6.4-3.33-4.92-5.43-11-9.58-15.29a27.66,27.66,0,0,0-5.12-4c-2.14-1.38-3.83-3.36-6.11-4.54a37,37,0,0,0-7.89-2.46,23.81,23.81,0,0,1-3.72-1.36,5.27,5.27,0,0,1,3.64-3.88A13.87,13.87,0,0,0,581,138.6c1.63-1.65,2.33-4.41,4.17-5.67s4.44-.26,6-2.25c1.24-1.61.84-4,.74-5.86-.23-4.08,2-6.45,4.66-9.21,3.29-3.37,7.88-4.19,7.2-10a31.48,31.48,0,0,0-2.66-8.59,35.11,35.11,0,0,0-2.16-3.65c-.94-1.55-1.41-3.26-2.32-4.82-3.37-5.82-8.35-6.48-14.28-8.28-7.06-2.15-14.45-3.93-21.91-3-5.69.69-9.64,5.36-12.51,10-3.72,5.95-2.36,12.48-1.72,19.07.15,1.54.4,3,.68,4.52.58,3.13.09,4.6-1.66,7.12s-2.73,5.63-4.81,8.13a11.88,11.88,0,0,1-3.47,3.36c-1.14.6-2.41.84-3.53,1.5a31.29,31.29,0,0,0-8.05,7.49,44.69,44.69,0,0,1-7.37,7c-1.89,1.51-3.38,3-5.67,4-1.52.64-3.11,1.09-4.59,1.83-5.09,2.54-7.44,8.46-8.52,13.77a43,43,0,0,0-.51,9.69c.1,3.48,1.12,6.79,1,10.28a50.06,50.06,0,0,0,.13,9.28c.62,3.88,2.22,7.42,3.08,11.21,1.7,7.51-1.72,14.17-2.49,21.49a49,49,0,0,0,0,5.74,41.58,41.58,0,0,1-.81,6.21A52.34,52.34,0,0,1,497,249.36a107.94,107.94,0,0,0-3.65,11.91c-.85,3.89-.93,7.85-1.65,11.74-.37,2-.44,4-.94,5.95a9.27,9.27,0,0,1-1.36,3.61c-.68.85-1.66,1.37-2.32,2.27a7.13,7.13,0,0,0-.72,6.89c1,2.31,3.17,3.66,5.25,4.91,1.9,1.15,4,2.27,6,3.5A64.14,64.14,0,0,0,499.94,316c1.4,4.75,3.83,8.81,6,13.23,1.81,3.76,2.87,8,5.18,11.54,1.16,1.76,2.92,2.91,4.12,4.69a22.43,22.43,0,0,0,3.67,4.34,12.3,12.3,0,0,1,3.46,13.71c-.92,2.68-3.28,6.48-1.76,9.34a7.1,7.1,0,0,0,3.45,2.72,7.39,7.39,0,0,0,1.25.34,3.91,3.91,0,0,0-2.17,1.79c-1,2-.46,4.25,0,6.29.29,1.19.74,2.26,1.1,3.4.58,1.83.26,2.94.1,4.78a8.94,8.94,0,0,0,.23,2.5c.41,2.22-.06,3.66-.84,5.76A22.75,22.75,0,0,0,521.9,409c.05,3.45.89,6.8.83,10.27-.14,7.59,1,15.22-2.6,22.19-2.47,4.77-6.89,9.71-6.19,15.44.48,3.93,5.31,4.75,8.69,4.6,2.21-.1,3.5-1.26,5.32-2.29,3.74-2.11,7.61-.56,11.52.18,3.24.61,6.56.59,9.82,1.1,3.89.6,7.4,1.6,11.37,1.67,2.51,0,5.16.49,7.56-.42,2.07-.78,5.32-2.2,6.71-4,1.22-1.59.73-2.41,2.92-3s4.59-1.13,6.24-2.7a9.32,9.32,0,0,0,2.47-5.85c.62-4.92,1.25-7.81,6.58-8.93,4.18-.87,7.59-3,9.16-7.1,2.43-6.39-.33-12.4-.84-18.8-.6-7.46,1.41-14.46,6.88-19.58a40.48,40.48,0,0,0,10.43-15.56c1.12-3.15,1.46-6.5,2.19-9.74a71.71,71.71,0,0,0,2-9.76c.65-7.93,2.69-15.69,3.57-23.61.45-4.07,1.32-8.4.55-12.48-.5-2.64-2.17-4-4-5.87-4.85-5.05-9.16-10.62-15-14.53-3.44-2.29-5.11-5.48-7.65-8.6-.34-.42-4.39-4.45-5.47-6a7.54,7.54,0,0,0,.71-12c-2.47-2.15-6.19-2.16-8.94-4-2.59-1.71-2-4.17-2.43-6.86-.36-2.35-1.32-4.53-1.66-6.89-.67-4.76-.33-9.46-.3-14.25,0-1.28.25-3.73.11-6a51.16,51.16,0,0,1,5.54,1.75,31.53,31.53,0,0,0,5.48,1.87,36.74,36.74,0,0,1,4.15.58c1.5.49,2.78,1.63,4.23,2.25,4.59,2,8.91,1,13.62,1.74,2.42.38,5,.57,7.38,1.06,2.67.56,5.22,1.75,7.94,2.07,2.2.26,3.85-.33,6-.69,2.45-.41,4.79.2,7.16-.68a15.22,15.22,0,0,0,8-7.8C653.27,234.55,652,232.24,649.52,230.13Zm-69.31.16a2.1,2.1,0,0,0-1.57-.11A27.27,27.27,0,0,1,574.9,228c1.52.53,3,1.07,4.56,1.65a26.28,26.28,0,0,1,3.86,1.92c-.73-.16-1.47-.33-2.2-.51A2.69,2.69,0,0,0,580.21,230.29Z"/></svg>